<svg width="21" height="18" viewBox="0 0 21 18" fill="none" xmlns="http://www.w3.org/2000/svg">
<path d="M20.1473 4.65101C19.854 4.50724 19.5214 4.46413 19.2011 4.52836C18.8808 4.59259 18.5906 4.76057 18.3754 5.00633L15.2189 8.40851L11.8626 0.881326C11.8624 0.878203 11.8624 0.875074 11.8626 0.871951C11.7426 0.611651 11.5505 0.391187 11.3091 0.236656C11.0677 0.082126 10.7871 0 10.5004 0C10.2138 0 9.93315 0.082126 9.69174 0.236656C9.45033 0.391187 9.25824 0.611651 9.13823 0.871951C9.13839 0.875074 9.13839 0.878203 9.13823 0.881326L5.78198 8.40851L2.62542 5.00633C2.40882 4.76052 2.11771 4.59239 1.79656 4.52762C1.47541 4.46285 1.14189 4.505 0.846953 4.64763C0.552016 4.79026 0.311886 5.02553 0.163254 5.31749C0.0146216 5.60945 -0.0343384 5.94205 0.0238548 6.26445C0.0238548 6.27476 0.0238548 6.28414 0.0304173 6.29445L2.15667 16.0323C2.22212 16.3752 2.40512 16.6845 2.67413 16.907C2.94315 17.1294 3.28133 17.2511 3.63042 17.251H17.3714C17.7203 17.2509 18.0582 17.1291 18.3271 16.9067C18.5959 16.6842 18.7787 16.375 18.8442 16.0323L20.9704 6.29445C20.9704 6.28414 20.9704 6.27476 20.977 6.26445C21.0363 5.94165 20.987 5.60829 20.837 5.31641C20.6869 5.02453 20.4444 4.79056 20.1473 4.65101Z" fill="#E6BA9A"/>
</svg>
