<svg width="28" height="28" viewBox="0 0 28 28" fill="none" xmlns="http://www.w3.org/2000/svg">
<g clip-path="url(#clip0_38_2368)">
<rect width="28" height="28" rx="10" fill="url(#paint0_linear_38_2368)"/>
<g clip-path="url(#clip1_38_2368)">
<path d="M13.9586 6.30865C9.72991 6.30865 6.29858 9.74065 6.29858 13.974L6.30058 14.1687C6.33294 15.4638 6.69317 16.7295 7.34757 17.8476C8.00198 18.9657 8.92921 19.8996 10.0426 20.562L10.0919 20.59L10.0512 20.528C9.61917 19.8407 9.37582 19.0518 9.34568 18.2406C9.31554 17.4294 9.49967 16.6246 9.87953 15.9072C10.2594 15.1898 10.8216 14.5851 11.5095 14.1541C12.1973 13.7231 12.9866 13.4809 13.7979 13.452L13.9539 13.4493C14.4266 13.4649 14.8976 13.3863 15.3396 13.2183C15.7817 13.0503 16.186 12.7961 16.529 12.4705C16.872 12.145 17.1469 11.7545 17.3377 11.3218C17.5285 10.8891 17.6315 10.4228 17.6406 9.94993C17.6497 9.47711 17.5647 9.00719 17.3907 8.56746C17.2166 8.12773 16.957 7.72697 16.6268 7.38844C16.2965 7.04991 15.9023 6.78037 15.4671 6.59546C15.0318 6.41055 14.5641 6.31396 14.0912 6.31131L13.9586 6.30865H13.9586ZM13.8932 8.58398C14.2181 8.58398 14.5297 8.71304 14.7594 8.94278C14.9892 9.17251 15.1182 9.48409 15.1182 9.80898C15.1182 10.1339 14.9892 10.4455 14.7594 10.6752C14.5297 10.9049 14.2181 11.034 13.8932 11.034C13.5684 11.034 13.2568 10.9049 13.027 10.6752C12.7973 10.4455 12.6682 10.1339 12.6682 9.80898C12.6682 9.48409 12.7973 9.17251 13.027 8.94278C13.2568 8.71304 13.5684 8.58398 13.8932 8.58398Z" fill="url(#paint1_linear_38_2368)"/>
<path d="M17.8347 7.35797L17.8754 7.41997C18.3074 8.10721 18.5508 8.89615 18.5809 9.70735C18.6111 10.5186 18.4269 11.3234 18.0471 12.0408C17.6672 12.7582 17.105 13.3628 16.4172 13.7939C15.7293 14.2249 14.94 14.467 14.1287 14.496L13.9727 14.4986C13.5001 14.4831 13.029 14.5616 12.587 14.7296C12.1449 14.8977 11.7406 15.1518 11.3976 15.4774C11.0546 15.803 10.7798 16.1935 10.5889 16.6262C10.3981 17.0589 10.2952 17.5252 10.2861 17.998C10.277 18.4708 10.3619 18.9408 10.5359 19.3805C10.71 19.8202 10.9696 20.221 11.2999 20.5595C11.6301 20.898 12.0243 21.1676 12.4595 21.3525C12.8948 21.5374 13.3625 21.634 13.8354 21.6366L13.968 21.6393C18.1967 21.6393 21.628 18.2073 21.628 13.974L21.626 13.7793C21.5937 12.4842 21.2335 11.2184 20.5791 10.1003C19.9246 8.98227 18.9974 8.04837 17.884 7.38597L17.8347 7.35797ZM13.7367 16.6913C13.9 16.6875 14.0623 16.7164 14.2143 16.7763C14.3662 16.8361 14.5046 16.9258 14.6214 17.0399C14.7382 17.154 14.831 17.2903 14.8944 17.4408C14.9578 17.5913 14.9904 17.753 14.9904 17.9163C14.9904 18.0796 14.9578 18.2413 14.8944 18.3918C14.831 18.5423 14.7382 18.6786 14.6214 18.7927C14.5046 18.9068 14.3662 18.9965 14.2143 19.0563C14.0623 19.1162 13.9 19.1451 13.7367 19.1413C13.4167 19.1339 13.1124 19.0016 12.8887 18.7727C12.665 18.5437 12.5397 18.2364 12.5397 17.9163C12.5397 17.5962 12.665 17.2889 12.8887 17.0599C13.1124 16.831 13.4167 16.6987 13.7367 16.6913Z" fill="url(#paint2_linear_38_2368)"/>
</g>
</g>
<defs>
<linearGradient id="paint0_linear_38_2368" x1="32.0833" y1="-10.5" x2="-9.33333" y2="17.5" gradientUnits="userSpaceOnUse">
<stop stop-color="#F2B47E"/>
<stop offset="1" stop-color="#F3C165"/>
</linearGradient>
<linearGradient id="paint1_linear_38_2368" x1="11.9699" y1="6.30866" x2="21.3708" y2="16.2153" gradientUnits="userSpaceOnUse">
<stop stop-color="white" stop-opacity="0.6"/>
<stop offset="1" stop-color="white"/>
</linearGradient>
<linearGradient id="paint2_linear_38_2368" x1="15.9567" y1="7.35797" x2="25.3576" y2="17.2646" gradientUnits="userSpaceOnUse">
<stop stop-color="white" stop-opacity="0.6"/>
<stop offset="1" stop-color="white"/>
</linearGradient>
<clipPath id="clip0_38_2368">
<rect width="28" height="28" fill="white"/>
</clipPath>
<clipPath id="clip1_38_2368">
<rect width="16" height="16" fill="white" transform="translate(6 6)"/>
</clipPath>
</defs>
</svg>
