<svg width="24" height="24" viewBox="0 0 24 24" fill="none" xmlns="http://www.w3.org/2000/svg">
<path d="M11.9999 7.50001C11.1099 7.50001 10.2399 7.76393 9.49987 8.2584C8.75985 8.75287 8.18307 9.45567 7.84248 10.2779C7.50188 11.1002 7.41277 12.005 7.5864 12.8779C7.76003 13.7508 8.18862 14.5527 8.81795 15.182C9.44729 15.8113 10.2491 16.2399 11.122 16.4135C11.9949 16.5872 12.8997 16.4981 13.722 16.1575C14.5443 15.8169 15.2471 15.2401 15.7415 14.5001C16.236 13.7601 16.4999 12.89 16.4999 12C16.4987 10.8069 16.0242 9.66305 15.1805 8.8194C14.3369 7.97576 13.193 7.50125 11.9999 7.50001ZM11.9999 15C11.4066 15 10.8266 14.8241 10.3332 14.4944C9.83988 14.1648 9.45536 13.6962 9.2283 13.1481C9.00123 12.5999 8.94182 11.9967 9.05758 11.4147C9.17333 10.8328 9.45906 10.2983 9.87861 9.87869C10.2982 9.45914 10.8327 9.17341 11.4147 9.05766C11.9966 8.9419 12.5998 9.00131 13.148 9.22837C13.6962 9.45544 14.1647 9.83995 14.4943 10.3333C14.824 10.8266 14.9999 11.4067 14.9999 12C14.9999 12.7957 14.6839 13.5587 14.1213 14.1213C13.5586 14.6839 12.7956 15 11.9999 15ZM22.3068 10.051C22.2859 9.94534 22.2425 9.84546 22.1796 9.7581C22.1167 9.67075 22.0357 9.59796 21.9421 9.5447L19.1456 7.95095L19.1343 4.79907C19.134 4.69053 19.1101 4.58334 19.0643 4.48493C19.0185 4.38652 18.9518 4.29922 18.869 4.22908C17.8546 3.37098 16.6864 2.71339 15.4265 2.29126C15.3273 2.25768 15.2221 2.24525 15.1178 2.25478C15.0135 2.26431 14.9124 2.29558 14.8209 2.34658L11.9999 3.92345L9.17618 2.34376C9.08464 2.29248 8.98335 2.26097 8.87887 2.25128C8.77439 2.24159 8.66904 2.25394 8.56962 2.28751C7.3107 2.71272 6.14383 3.37282 5.13087 4.23283C5.04815 4.30287 4.9816 4.39002 4.9358 4.48826C4.89 4.5865 4.86603 4.6935 4.86556 4.80189L4.8515 7.95658L2.05493 9.55033C1.96137 9.60359 1.88038 9.67637 1.81745 9.76373C1.75452 9.85108 1.71114 9.95096 1.69025 10.0566C1.43431 11.3427 1.43431 12.6667 1.69025 13.9528C1.71114 14.0584 1.75452 14.1583 1.81745 14.2457C1.88038 14.333 1.96137 14.4058 2.05493 14.4591L4.8515 16.0528L4.86275 19.2047C4.86309 19.3132 4.88699 19.4204 4.93279 19.5188C4.9786 19.6173 5.04522 19.7045 5.12806 19.7747C6.1425 20.6328 7.31071 21.2904 8.57056 21.7125C8.66977 21.7461 8.77492 21.7585 8.87923 21.749C8.98354 21.7395 9.08469 21.7082 9.17618 21.6572L11.9999 20.0766L14.8237 21.6563C14.9354 21.7185 15.0614 21.7508 15.1893 21.75C15.2712 21.75 15.3526 21.7367 15.4302 21.7106C16.689 21.286 17.8559 20.6265 18.869 19.7672C18.9517 19.6972 19.0183 19.61 19.0641 19.5118C19.1099 19.4135 19.1338 19.3065 19.1343 19.1981L19.1484 16.0435L21.9449 14.4497C22.0385 14.3964 22.1195 14.3237 22.1824 14.2363C22.2453 14.1489 22.2887 14.0491 22.3096 13.9434C22.5641 12.6583 22.5632 11.3357 22.3068 10.051Z" fill="#E6BA9A"/>
<path d="M12 7.5C11.11 7.5 10.24 7.76392 9.49994 8.25839C8.75991 8.75285 8.18314 9.45566 7.84254 10.2779C7.50195 11.1002 7.41283 12.005 7.58647 12.8779C7.7601 13.7508 8.18868 14.5526 8.81802 15.182C9.44736 15.8113 10.2492 16.2399 11.1221 16.4135C11.995 16.5872 12.8998 16.4981 13.7221 16.1575C14.5443 15.8169 15.2471 15.2401 15.7416 14.5001C16.2361 13.76 16.5 12.89 16.5 12C16.4988 10.8069 16.0243 9.66304 15.1806 8.81939C14.337 7.97575 13.1931 7.50124 12 7.5Z" fill="white"/>
</svg>
