<svg width="28" height="28" viewBox="0 0 28 28" fill="none" xmlns="http://www.w3.org/2000/svg">
<rect width="28" height="28" rx="10" fill="url(#paint0_linear_38_2395)"/>
<path d="M7.79604 11.1915C8.28565 11.4275 9.02041 11.6043 9.87706 11.7817C10.7963 11.9 11.7143 11.9592 12.7555 11.9592C13.7966 11.9592 14.7759 11.9 15.6332 11.7817C16.5518 11.6634 17.2253 11.4275 17.7149 11.1909C18.2045 10.9543 18.5109 10.6592 18.5109 10.3634V9.59577C18.5109 9.30002 18.2658 9.06341 17.7149 8.76831C17.2253 8.53171 16.4905 8.35425 15.6339 8.1768C14.8358 8.0598 13.8566 8 12.8154 8C11.7143 8 10.7957 8.0585 9.87773 8.17745C9.02041 8.35425 8.28565 8.53171 7.79604 8.76831C7.24514 9.00426 7 9.30002 7 9.59577V10.4226C7 10.6592 7.24514 10.9543 7.79604 11.1909V11.1915ZM12.6329 15.5635C11.4691 15.5635 10.4286 15.505 9.44873 15.3275C8.40822 15.1501 7.61286 14.9135 7 14.5586V15.622C7 15.9177 7.24514 16.1544 7.79604 16.4495C8.28565 16.6861 9.02041 16.8629 9.87706 17.041C10.6738 17.0995 11.5917 17.158 12.5103 17.158V16.6861C12.5103 16.3312 12.5709 15.9177 12.6329 15.5628V15.5635ZM9.44873 17.9276C8.40822 17.7501 7.61286 17.5135 7 17.1586V18.222C7 18.5178 7.24514 18.7544 7.79604 19.0495C8.28565 19.2861 9.02041 19.4629 9.87706 19.641C10.7957 19.758 11.7143 19.8178 12.7548 19.8178H13.6121C13.2451 19.3452 12.9386 18.8129 12.7548 18.222C11.5917 18.1635 10.4899 18.1044 9.44873 17.9269V17.9276ZM14.3469 12.9043C13.8573 12.9635 13.3064 12.9635 12.7548 12.9635C11.5917 12.9635 10.4899 12.905 9.44873 12.7275C8.59792 12.5881 7.7729 12.3291 7 11.9585L7 13.022C7 13.3184 7.24514 13.5543 7.79604 13.8501C8.28565 14.0867 9.02041 14.2635 9.87706 14.4416C10.7957 14.5586 11.7143 14.6184 12.7548 14.6184H12.9999C13.3064 13.9092 13.796 13.3769 14.3469 12.9043ZM20.7145 13.6726C18.9999 12.0184 16.1834 12.0184 14.4082 13.6726C12.6942 15.3275 12.6942 18.0452 14.4082 19.7593C16.1228 21.4136 18.9386 21.4136 20.7145 19.7593C22.4285 18.0452 22.4285 15.3275 20.7145 13.6726ZM18.5715 17.8093C18.1683 18.1978 17.8183 18.6347 17.5304 19.1093C17.2426 18.6348 16.8929 18.1979 16.4898 17.8093C16.0873 17.4203 15.6346 17.0827 15.1429 16.805C15.6346 16.5271 16.0873 16.1893 16.4898 15.8001C16.8929 15.4115 17.2426 14.9746 17.5304 14.5001C17.7755 14.9135 18.1432 15.3867 18.5715 15.8001C18.9741 16.1893 19.4268 16.527 19.9185 16.805C19.4902 16.9818 18.9999 17.3367 18.5715 17.8093Z" fill="url(#paint1_linear_38_2395)"/>
<defs>
<linearGradient id="paint0_linear_38_2395" x1="32.0833" y1="-10.5" x2="-9.33333" y2="17.5" gradientUnits="userSpaceOnUse">
<stop stop-color="#F2B47E"/>
<stop offset="1" stop-color="#F3C165"/>
</linearGradient>
<linearGradient id="paint1_linear_38_2395" x1="9" y1="8" x2="22" y2="21" gradientUnits="userSpaceOnUse">
<stop stop-color="white" stop-opacity="0.6"/>
<stop offset="1" stop-color="white"/>
</linearGradient>
</defs>
</svg>
