<svg width="24" height="22" viewBox="0 0 24 22" fill="none" xmlns="http://www.w3.org/2000/svg">
<path d="M8.58984 1.11914C10.6107 -0.37326 13.3893 -0.37326 15.4102 1.11914L21.3848 5.53223C22.7162 6.51561 23.5 8.05927 23.5 9.69824V16.793C23.5 19.6687 21.133 21.9999 18.2129 22H5.78711C2.86704 21.9999 0.500038 19.6687 0.5 16.793V9.69824C0.5 8.05927 1.28385 6.51561 2.61523 5.53223L8.58984 1.11914ZM9.22852 15.2344C8.73431 15.2749 8.36044 15.6917 8.38086 16.1797C8.40136 16.6676 8.80879 17.0534 9.30469 17.0537H14.5918L14.668 17.0498C15.1623 17.0094 15.537 16.5926 15.5166 16.1045C15.4962 15.6164 15.0878 15.2307 14.5918 15.2305H9.30469L9.22852 15.2344Z" fill="#D3844E"/>
</svg>
