<svg width="24" height="24" viewBox="0 0 24 24" fill="none" xmlns="http://www.w3.org/2000/svg">
<path d="M11.8572 22.839C5.79188 22.839 0.85733 17.9044 0.85733 11.8388C0.85733 5.77362 5.79188 0.83902 11.8572 0.83902C17.9228 0.83902 22.8573 5.77362 22.8573 11.839C22.8573 17.9047 17.9228 22.839 11.8572 22.839Z" stroke="#D3844E" stroke-width="1.2"/>
<path d="M11.0657 6.24591C11.0657 6.71485 11.3159 7.14817 11.722 7.38265C12.1281 7.61712 12.6285 7.61712 13.0346 7.38265C13.4407 7.14817 13.6909 6.71485 13.6909 6.24591C13.6909 5.77697 13.4407 5.34364 13.0346 5.10917C12.6285 4.8747 12.1281 4.8747 11.722 5.10917C11.3159 5.34364 11.0657 5.77697 11.0657 6.24591Z" fill="#D3844E"/>
<path d="M14.3739 1.37808C17.1071 1.96019 22.7772 4.06471 23.123 11.5275C23.1268 11.5667 24.0844 21.3485 12.0487 23.1252C9.33671 23.5255 7.17471 20.4919 7.17471 17.5714C7.17489 14.6688 9.29358 12.2842 11.9989 12.0226C12.1619 12.0068 12.3271 11.9992 12.494 11.9992L12.9228 11.9728C15.7725 11.9728 18.0829 9.55231 18.0829 6.56656C18.0828 4.10889 16.5173 2.03461 14.3739 1.37808ZM11.3759 15.6603C10.6511 15.6603 10.0635 16.248 10.0634 16.9728C10.0634 17.6977 10.651 18.2853 11.3759 18.2853C12.1007 18.2852 12.6884 17.6976 12.6884 16.9728C12.6882 16.2481 12.1006 15.6605 11.3759 15.6603ZM12.9228 1.16129C13.279 1.16129 13.6269 1.19885 13.9628 1.27066C14.1019 1.30047 14.2392 1.33681 14.3739 1.37808C13.4975 1.19142 12.9228 1.16129 12.9228 1.16129Z" fill="#D3844E"/>
<path d="M12.2034 0.8508C12.5959 0.8508 12.9887 0.8903 13.371 0.968565C16.0538 1.51764 18.001 3.90656 18.001 6.64877C18.001 9.83775 15.4129 12.4335 12.2269 12.4462L11.7861 12.4705C11.6482 12.4705 11.5103 12.4769 11.3761 12.4892C9.10447 12.6992 7.29402 14.2369 6.81849 16.9731C6.34295 19.7093 8.36218 22.6518 10.6193 22.839" stroke="#D3844E"/>
</svg>
