<svg width="24" height="25" viewBox="0 0 24 25" fill="none" xmlns="http://www.w3.org/2000/svg">
<path d="M12 1.75C17.9371 1.75 22.75 6.56294 22.75 12.5C22.75 18.4371 17.9371 23.25 12 23.25C6.06294 23.25 1.25 18.4371 1.25 12.5C1.25 6.56294 6.06294 1.75 12 1.75ZM16.1689 11.9502C15.8655 11.8173 15.511 11.9554 15.3779 12.2588L15.377 12.2617C15.3755 12.2651 15.3726 12.2717 15.3691 12.2793C15.3621 12.2948 15.3507 12.3186 15.3359 12.3496C15.306 12.4123 15.2607 12.5046 15.2012 12.6182C15.0813 12.8466 14.9059 13.1585 14.6826 13.4893C14.2209 14.1732 13.6169 14.8477 12.9551 15.1338C12.2332 15.4457 11.3403 15.5525 10.5938 15.5723C10.227 15.582 9.90828 15.5704 9.68262 15.5566C9.57043 15.5498 9.48149 15.5427 9.42188 15.5371C9.39216 15.5343 9.36887 15.5318 9.35449 15.5303C9.34755 15.5295 9.34187 15.5287 9.33887 15.5283H9.33691C9.00809 15.4888 8.70871 15.723 8.66895 16.0518C8.62931 16.3805 8.86374 16.6797 9.19238 16.7197C9.19235 16.7191 9.19518 16.7018 9.25684 16.1904L9.19336 16.7197H9.19629C9.19796 16.7199 9.20043 16.7204 9.20312 16.7207C9.20872 16.7213 9.2168 16.7226 9.22656 16.7236C9.24619 16.7257 9.27429 16.7281 9.30957 16.7314C9.38075 16.7381 9.48299 16.7472 9.60938 16.7549C9.8622 16.7703 10.2172 16.7823 10.626 16.7715C11.4307 16.7502 12.5019 16.6366 13.4307 16.2354C14.4196 15.8079 15.1839 14.8902 15.6768 14.1602C15.9306 13.7841 16.1288 13.4329 16.2637 13.1758C16.3313 13.0469 16.3841 12.9404 16.4199 12.8652C16.4376 12.8281 16.4513 12.7984 16.4609 12.7773C16.4657 12.7668 16.4699 12.758 16.4727 12.752C16.4739 12.7492 16.4748 12.7469 16.4756 12.7451L16.4766 12.7422V12.7412H16.4775C16.6106 12.4377 16.4724 12.0833 16.1689 11.9502Z" fill="#D3844E"/>
</svg>
