<svg width="29" height="28" viewBox="0 0 29 28" fill="none" xmlns="http://www.w3.org/2000/svg">
<rect x="0.333252" width="28" height="28" rx="10" fill="url(#paint0_linear_38_2378)"/>
<path d="M20.1988 9.10368L18.3277 7.1674C17.5964 6.42061 16.6087 6.00112 15.5791 6H11.2149C10.1857 6.00075 9.19877 6.42234 8.47097 7.17219C7.74317 7.92204 7.33398 8.93885 7.33325 9.9993V18.0007C7.33398 19.0612 7.74317 20.078 8.47097 20.8278C9.19877 21.5777 10.1857 21.9993 11.2149 22H17.4516C18.4808 21.9993 19.4677 21.5777 20.1955 20.8278C20.9233 20.078 21.3325 19.0612 21.3333 18.0007V11.9201C21.3333 11.3968 21.2331 10.8787 21.0385 10.3954C20.8438 9.91211 20.5585 9.47315 20.1988 9.10368ZM16.7573 16.9291H12.1853C12.0309 16.9291 11.8828 16.8659 11.7736 16.7534C11.6644 16.6409 11.6031 16.4883 11.6031 16.3292C11.6031 16.1701 11.6644 16.0175 11.7736 15.905C11.8828 15.7925 12.0309 15.7293 12.1853 15.7293H16.7573C16.8337 15.7293 16.9094 15.7448 16.9801 15.7749C17.0507 15.8051 17.1149 15.8493 17.169 15.905C17.223 15.9607 17.2659 16.0268 17.2952 16.0996C17.3244 16.1724 17.3395 16.2504 17.3395 16.3292C17.3395 16.4079 17.3244 16.486 17.2952 16.5587C17.2659 16.6315 17.223 16.6977 17.169 16.7534C17.1149 16.8091 17.0507 16.8532 16.9801 16.8834C16.9094 16.9135 16.8337 16.9291 16.7573 16.9291ZM18.4425 11.9849H17.6498C17.0839 11.9837 16.5415 11.7516 16.1413 11.3394C15.7412 10.9271 15.5159 10.3683 15.5148 9.78525V8.96849C15.5148 8.80939 15.5762 8.6568 15.6854 8.5443C15.7946 8.4318 15.9427 8.3686 16.0971 8.3686C16.2515 8.3686 16.3996 8.4318 16.5088 8.5443C16.618 8.6568 16.6793 8.80939 16.6793 8.96849V9.78525C16.6793 9.91655 16.7044 10.0466 16.7532 10.1679C16.802 10.2892 16.8735 10.3994 16.9636 10.4922C17.0537 10.5851 17.1607 10.6587 17.2784 10.709C17.3961 10.7592 17.5223 10.7851 17.6498 10.7851H18.4425C18.5969 10.7851 18.745 10.8483 18.8542 10.9608C18.9634 11.0733 19.0247 11.2259 19.0247 11.385C19.0247 11.5441 18.9634 11.6967 18.8542 11.8092C18.745 11.9217 18.5969 11.9849 18.4425 11.9849Z" fill="url(#paint1_linear_38_2378)"/>
<defs>
<linearGradient id="paint0_linear_38_2378" x1="32.4166" y1="-10.5" x2="-9.00008" y2="17.5" gradientUnits="userSpaceOnUse">
<stop stop-color="#F2B47E"/>
<stop offset="1" stop-color="#F3C165"/>
</linearGradient>
<linearGradient id="paint1_linear_38_2378" x1="14.3333" y1="6" x2="24.7635" y2="18.1092" gradientUnits="userSpaceOnUse">
<stop stop-color="white" stop-opacity="0.6"/>
<stop offset="1" stop-color="white"/>
</linearGradient>
</defs>
</svg>
