<svg width="29" height="28" viewBox="0 0 29 28" fill="none" xmlns="http://www.w3.org/2000/svg">
<g clip-path="url(#clip0_38_2384)">
<rect x="0.666748" width="28" height="28" rx="10" fill="url(#paint0_linear_38_2384)"/>
<g clip-path="url(#clip1_38_2384)">
<path d="M7.87253 11.2387C7.87253 9.44978 9.35341 8 11.1796 8C13.0059 8 14.4867 9.44978 14.4867 11.2387C14.4867 13.0276 13.0059 14.4773 11.1796 14.4773C9.35341 14.4773 7.87253 13.0276 7.87253 11.2387ZM12.4179 20.1738V19.9498C12.4179 18.2978 13.2796 16.848 14.577 15.9924C13.9921 15.7093 13.3481 15.56 12.6947 15.56H9.9383C7.58008 15.56 5.66675 17.4329 5.66675 19.7444V20.0151C5.66675 20.9609 7.58008 20.9609 9.9383 20.9609H12.5734C12.4676 20.712 12.4147 20.4444 12.4179 20.1738ZM18.2885 10.1996C16.7734 10.1996 15.5445 11.4036 15.5445 12.8876C15.5445 14.3716 16.7734 15.5756 18.2885 15.5756C19.8036 15.5756 21.0325 14.3716 21.0325 12.8876C21.0325 11.4036 19.8036 10.1996 18.2885 10.1996ZM18.2885 10.1996C16.7734 10.1996 15.5445 11.4036 15.5445 12.8876C15.5445 14.3716 16.7734 15.5756 18.2885 15.5756C19.8036 15.5756 21.0325 14.3716 21.0325 12.8876C21.0325 11.4036 19.8036 10.1996 18.2885 10.1996ZM17.2587 16.4778C15.3019 16.4778 13.7121 18.0333 13.7121 19.9498V20.1738C13.7121 20.9578 15.2987 20.9578 17.2587 20.9578H19.5454C21.5023 20.9578 23.089 20.9298 23.089 20.1738V19.9498C23.089 18.0302 21.5023 16.4778 19.5454 16.4778H17.2587Z" fill="url(#paint1_linear_38_2384)"/>
</g>
</g>
<defs>
<linearGradient id="paint0_linear_38_2384" x1="32.7501" y1="-10.5" x2="-8.66659" y2="17.5" gradientUnits="userSpaceOnUse">
<stop stop-color="#F2B47E"/>
<stop offset="1" stop-color="#F3C165"/>
</linearGradient>
<linearGradient id="paint1_linear_38_2384" x1="14.3779" y1="8" x2="21.6667" y2="21" gradientUnits="userSpaceOnUse">
<stop stop-color="white" stop-opacity="0.6"/>
<stop offset="1" stop-color="white"/>
</linearGradient>
<clipPath id="clip0_38_2384">
<rect width="28" height="28" fill="white" transform="translate(0.666748)"/>
</clipPath>
<clipPath id="clip1_38_2384">
<rect width="17.4222" height="12.9609" fill="white" transform="translate(5.66675 8)"/>
</clipPath>
</defs>
</svg>
