<svg width="24" height="25" viewBox="0 0 24 25" fill="none" xmlns="http://www.w3.org/2000/svg">
<path d="M11.9999 23.5C5.93455 23.5 1 18.5654 1 12.4998C1 6.43461 5.93455 1.5 11.9999 1.5C18.0655 1.5 23 6.4346 23 12.5C23 18.5656 18.0655 23.5 11.9999 23.5Z" stroke="#E6BA9A" stroke-width="1.2"/>
<path d="M12 10.5C12.5523 10.5 13 10.9477 13 11.5V16.5C13 17.0523 12.5523 17.5 12 17.5C11.4477 17.5 11 17.0523 11 16.5V11.5C11 10.9477 11.4477 10.5 12 10.5ZM12 7.5C12.5523 7.5 13 7.94772 13 8.5C13 9.05228 12.5523 9.5 12 9.5C11.4477 9.5 11 9.05228 11 8.5C11 7.94772 11.4477 7.5 12 7.5Z" fill="#E6BA9A"/>
</svg>
