<svg width="26" height="24" viewBox="0 0 26 24" fill="none" xmlns="http://www.w3.org/2000/svg">
<path d="M9.58965 2.11953L3.61494 6.53254C2.28356 7.51593 1.5 9.05925 1.5 10.6982V17.7929C1.5 20.6688 3.86715 23 6.78736 23H19.2126C22.1329 23 24.5 20.6688 24.5 17.7929V10.6982C24.5 9.05925 23.7164 7.51593 22.3851 6.53254L16.4103 2.11953C14.3894 0.626824 11.6106 0.626824 9.58965 2.11953Z" stroke="#E6BA9A" stroke-width="1.2"/>
<path d="M15.5922 16.2308C16.0883 16.231 16.4959 16.6164 16.5163 17.1045C16.5368 17.5926 16.1627 18.0097 15.6684 18.0501L15.5922 18.0533H10.3049C9.80885 18.053 9.40123 17.6676 9.3808 17.1795C9.36038 16.6914 9.73441 16.2743 10.2288 16.2339L10.3049 16.2308H15.5922Z" fill="#E6BA9A"/>
</svg>
