<svg width="24" height="24" viewBox="0 0 24 24" fill="none" xmlns="http://www.w3.org/2000/svg">
<path d="M12.0486 23.1252C9.33659 23.5256 7.17474 20.4923 7.17474 17.5718C7.17474 14.669 9.29346 12.2845 11.9989 12.0229C12.1619 12.007 12.3271 11.9991 12.4941 11.9991L12.9232 11.9729C15.7729 11.9729 18.0834 9.5527 18.0834 6.56695C18.0834 3.95461 16.3145 1.77489 13.9633 1.27092C13.6272 1.19904 13.2796 1.16098 12.9232 1.16098C12.9232 1.16098 22.6666 1.67156 23.1232 11.5273C23.1232 11.5273 24.1086 21.3451 12.0486 23.1252Z" fill="#ECCCB3" fill-opacity="0.3"/>
<path d="M11.8572 22.839C5.79188 22.839 0.85733 17.9044 0.85733 11.8388C0.85733 5.77362 5.79188 0.83902 11.8572 0.83902C17.9228 0.83902 22.8573 5.77362 22.8573 11.839C22.8573 17.9047 17.9228 22.839 11.8572 22.839Z" stroke="#E6BA9A" stroke-width="1.2"/>
<path d="M11.0657 6.24591C11.0657 6.71485 11.3159 7.14817 11.722 7.38265C12.1281 7.61712 12.6285 7.61712 13.0346 7.38265C13.4407 7.14817 13.6909 6.71485 13.6909 6.24591C13.6909 5.77697 13.4407 5.34364 13.0346 5.10917C12.6285 4.8747 12.1281 4.8747 11.722 5.10917C11.3159 5.34364 11.0657 5.77697 11.0657 6.24591Z" fill="#E6BA9A"/>
<path d="M10.063 16.9731C10.063 17.698 10.6507 18.2857 11.3756 18.2857C12.1005 18.2857 12.6882 17.698 12.6882 16.9731C12.6882 16.2482 12.1005 15.6605 11.3756 15.6605C10.6507 15.6605 10.063 16.2482 10.063 16.9731H10.063Z" fill="#E6BA9A"/>
<path d="M12.2034 0.8508C12.5959 0.8508 12.9887 0.8903 13.371 0.968565C16.0538 1.51764 18.001 3.90656 18.001 6.64877C18.001 9.83775 15.4129 12.4335 12.2269 12.4462L11.7861 12.4705C11.6482 12.4705 11.5103 12.4769 11.3761 12.4892C9.10447 12.6992 7.29402 14.2369 6.81849 16.9731C6.34295 19.7093 8.36218 22.6518 10.6193 22.839" stroke="#E6BA9A"/>
</svg>
